<svg width="63" height="9" viewBox="0 0 63 9" xmlns="http://www.w3.org/2000/svg" xmlns:xlink="http://www.w3.org/1999/xlink" xmlns:figma="http://www.figma.com/figma/ns"><title>Group</title><desc>Created using Figma</desc><use xlink:href="#a" transform="rotate(-90 4.5 4.5)" fill="#DCE9FF" style="mix-blend-mode:normal" figma:type="vector"/><defs><path id="a" d="M4.078 7.536c.05-1.101.098-2.17.098-3.27.025-1.769.836-2.904 1.67-4.038.271-.367.59-.267.836.133.172.3.32.634.492 1.001.049-.033.122-.066.196-.133.246-.3.54-.868.86-.567.295.266.54.867.565 1.334.074 2.003-.05 4.072.147 6.04.172 2.003-.098 3.939-.073 5.908.024 1.868 0 3.77-.05 5.64-.024 1.167-.27 2.302-.22 3.47.024 1.402-.074 2.737-.197 4.105-.123 1.568 0 3.137-.295 4.705-.147.768-.074 1.569-.098 2.37-.05 1.167-.05 2.302-.123 3.47-.05.801-.172 1.602-.246 2.403-.098 1.235-.147 2.436-.22 3.67-.124 1.903-.271 3.805-.418 5.707-.074.968-.172 1.936-.246 2.904-.074 1-.074 2.002-.147 3.003-.148 2.036-.32 4.072-.492 6.107-.049.534-.295.901-.688 1.035-.663.167-1.326.334-1.965.467.123-2.57.246-5.006.368-7.408-.024 0-.049-.034-.098-.034-.049.234-.123.467-.172.7l-.147.902c-.197 1.135-.614 1.602-1.474 1.669-.467.033-.958.066-1.572.1.122-3.838.294-7.576.49-11.547.148.367.197.467.247.6.466-.533-.148-.867-.172-1.334-.025-.701-.59-.6-.934-.668.221-1.635.369-3.17.639-4.705.27-1.502.27-3.003.27-4.505 0-1.168.074-2.336 0-3.47-.05-.535.32-.468.32-.835-.025-1.202-.05-2.403-.074-3.638 0-.1-.123-.167-.148-.267-.024-.333-.172-.867-.049-1.068.418-.6.148-1.268.246-1.868.098-.601.024-1.235 0-1.836-.074-1.668-.074-3.37-.197-5.039-.098-1.502 0-3.003 0-4.505 0-1.001-.024-2.002-.123-3.004a6.4 6.4 0 0 1 .688-3.704l.811-1.502c.197-.4.418-.8.835-.6.393.167.54.634.639 1.168.05.3-.221.767.221.934a10.42 10.42 0 0 0-.049 2.47h.197c-.05-.835-.099-1.669-.148-2.47zm2.53 6.04c-.049 0-.122-.033-.171-.033-.099.434-.27.868-.295 1.302-.148 2.77-.295 5.573-.418 8.376-.024.734.025 1.468 0 2.236l-.147 7.642c0 .3.024.634.024.934a9.5 9.5 0 0 1-.049.835c.123-.434.074-.835.098-1.269.074-1.601.148-3.17.246-4.772.025-.534.147-1.068.172-1.602.074-2.002.123-4.004.197-6.007.098-2.536.22-5.072.344-7.642z"/></defs></svg>