<svg width="14" height="90" viewBox="0 0 14 90" xmlns="http://www.w3.org/2000/svg" xmlns:xlink="http://www.w3.org/1999/xlink" xmlns:figma="http://www.figma.com/figma/ns"><title>arrow</title><desc>Created using Figma</desc><g style="mix-blend-mode:normal" figma:type="frame"><use xlink:href="#a" transform="rotate(-180 3.5 41.5)" style="mix-blend-mode:normal" figma:type="vector"/><g style="mix-blend-mode:normal" figma:type="vector" transform="translate(-597 2188)"><use xlink:href="#b" transform="rotate(-135 -132.51 -1174.092)" style="mix-blend-mode:normal"/><mask id="c"><use xlink:href="#b" fill="#fff" transform="rotate(-135 -132.51 -1174.092)"/></mask><g mask="url(#c)"><use xlink:href="#d" transform="rotate(-135 -132.51 -1174.092)" style="mix-blend-mode:normal"/></g></g></g><defs><path id="a" d="M1 83V0h-2v83h2z"/><path id="b" d="M9.9 0H0v9.9L9.9 0z"/><path id="d" d="M0 0v-1h-1v1h1zm9.9 0l.707.707L12.314-1H9.9v1zM0 9.9h-1v2.414l1.707-1.707L0 9.9zM0 1h9.9v-2H0v2zm1 8.9V0h-2v9.9h2zM9.193-.707l-9.9 9.9 1.414 1.414 9.9-9.9L9.193-.707z"/></defs></svg>