<svg width="80" height="80" viewBox="0 0 80 80" version="1.1" xmlns="http://www.w3.org/2000/svg" xmlns:xlink="http://www.w3.org/1999/xlink" xmlns:figma="http://www.figma.com/figma/ns">
<title>logo</title>
<desc>Created using Figma</desc>
<g id="Canvas" transform="translate(-4072 -27)" figma:type="canvas">
<mask id="mask0_alpha" mask-type="alpha">
<path d="M 4072 27L 4152 27L 4152 107L 4072 107L 4072 27Z" fill="#FFFFFF"/>
</mask>
<g id="logo" mask="url(#mask0_alpha)" figma:type="frame">
<g id="Group" figma:type="frame">
<g id="Vector 5 (Stroke) (Stroke)" figma:type="vector">
<use xlink:href="#path0_fill" transform="translate(4103.73 27)" fill="#06D677"/>
</g>
<g id="Ellipse (Stroke) (Stroke)" figma:type="vector">
<use xlink:href="#path1_fill" transform="translate(4080.27 56.0866)" fill="#06D677"/>
</g>
<g id="Vector 5 (Stroke) (Stroke)" figma:type="vector">
<use xlink:href="#path2_fill" transform="matrix(1.09889e-16 -1 1 1.12168e-16 4072 68.5917)" fill="#06D677"/>
</g>
<g id="Ellipse (Stroke) (Stroke)" figma:type="vector">
<use xlink:href="#path3_fill" transform="translate(4072.89 27.9502)" fill="#06D677"/>
</g>
<g id="Ellipse (Stroke) (Stroke)" figma:type="vector">
<use xlink:href="#path3_fill" transform="translate(4133.23 27.9502)" fill="#06D677"/>
</g>
</g>
</g>
</g>
<defs>
<path id="path0_fill" d="M 5.9335 16.9865L 10.4065 12.505L 2.01117 12.505C 0.810953 12.505 0 11.3473 0 10.272C 0 9.19675 0.810953 8.03896 2.01117 8.03896L 10.4065 8.03896L 5.9335 3.5575L 5.93017 3.55416C 5.13565 2.74113 5.13567 1.42723 5.93018 0.614211C 6.73049 -0.204737 8.03254 -0.204737 8.83284 0.614211L 16.8343 8.80204C 17.6288 9.61506 17.6288 10.9289 16.8343 11.742L 8.83284 19.9298C 8.03254 20.7487 6.73049 20.7487 5.93018 19.9298C 5.13567 19.1168 5.13567 17.8029 5.93018 16.9899L 5.9335 16.9865Z"/>
<path id="path1_fill" fill-rule="evenodd" d="M 2.01117 0C 3.12192 0 4.02235 0.899791 4.02235 2.00974L 4.02235 18.5343C 4.02235 34.2108 16.6423 46.8939 32.1788 46.8939C 47.7152 46.8939 60.3352 34.2108 60.3352 18.5343L 60.3352 2.00974C 60.3352 0.899791 61.2357 0 62.3464 0C 63.4571 0 64.3576 0.899791 64.3576 2.00974L 64.3576 18.5343C 64.3576 36.4027 49.9647 50.9134 32.1788 50.9134C 14.3929 50.9134 0 36.4027 0 18.5343L 0 2.00974C 0 0.899791 0.900433 0 2.01117 0Z"/>
<path id="path2_fill" fill-rule="evenodd" d="M 0.585819 0.61373C 1.37764 -0.193155 2.67403 -0.206082 3.48181 0.584802L 11.8903 8.81736C 12.2834 9.20224 12.505 9.72913 12.505 10.2793C 12.505 10.8295 12.2834 11.3564 11.8903 11.7413L 3.48181 19.9739C 2.67403 20.7648 1.37764 20.7518 0.585819 19.9449C -0.206457 19.1376 -0.193467 17.8413 0.614779 17.0499L 7.53002 10.2793L 0.614779 3.50875C -0.193467 2.71741 -0.206457 1.42108 0.585819 0.61373Z"/>
<path id="path3_fill" fill-rule="evenodd" d="M 9.38548 14.7381C 12.3475 14.7381 14.7486 12.3386 14.7486 9.37878C 14.7486 6.41892 12.3475 4.01948 9.38548 4.01948C 6.4235 4.01948 4.02235 6.41892 4.02235 9.37878C 4.02235 12.3386 6.4235 14.7381 9.38548 14.7381ZM 18.771 9.37878C 18.771 14.5585 14.5689 18.7576 9.38548 18.7576C 4.20202 18.7576 0 14.5585 0 9.37878C 0 4.19902 4.20202 0 9.38548 0C 14.5689 0 18.771 4.19902 18.771 9.37878Z"/>
</defs>
</svg>
