<svg width="193" height="100" viewBox="0 0 193 100" xmlns="http://www.w3.org/2000/svg" xmlns:xlink="http://www.w3.org/1999/xlink" xmlns:figma="http://www.figma.com/figma/ns"><title>Group</title><desc>Created using Figma</desc><use xlink:href="#a" transform="rotate(-90 50 50)" fill="#DCE9FF" style="mix-blend-mode:normal" figma:type="vector"/><defs><path id="a" d="M.976 76.68c.837-.185 1.581-.37 2.419-.556-.28-1.391-.558-2.69-.838-3.894-.465-2.504-1.023-4.915.652-7.326.744-1.112 1.21-3.152.651-4.08-1.21-2.317 0-4.357.465-6.304.465-2.04.838-4.08 1.303-6.027C7.303 41.91 9.35 35.512 12.234 29.3c3.257-6.862 7.444-12.796 12.747-18.266 3.07-3.153 5.955-6.213 9.863-8.252C38.566.927 42.474 0 46.568 0c8.56 0 15.538 3.709 22.145 8.716 4.838 3.801 8.746 8.345 12.282 13.259 6.047 8.437 10.048 17.895 13.026 27.723 1.489 5.007 2.884 10.107 4 15.3.652 2.966.652 6.119 1.024 9.179.28 2.781.93 5.47.93 8.252.094 4.08-.092 8.067-.371 12.146-.28 4.08-.838 8.16-1.303 12.239-.651 6.213-2.605 12.054-4.931 17.803-.838 2.225-1.954 4.358-2.792 6.583-.372.834-.558 1.669-.651 2.503-1.21 9.458-3.257 18.73-6.792 27.631-2.42 6.305-5.77 12.147-10.235 17.246-2.885 3.338-5.955 6.583-9.77 8.994-4.652 2.874-9.584 4.451-14.98 5.007-4.187.464-8.374.834-12.468-.556-2.885-1.02-5.77-1.947-7.816-4.451-.372-.464-1.024-.742-1.675-1.02-2.791-1.483-4.652-3.894-6.42-6.305-2.326-3.245-4.653-6.49-6.513-10.014-1.675-3.059-2.885-6.49-4.187-9.828-.93-2.411-1.768-4.822-2.606-7.232-.279-.835-.372-1.855-.651-2.689-.558-1.298-1.21-2.689-2.047-3.894-.465-.65-.744-.835-.558-1.855.558-3.06.093-6.027-.559-8.994-.837-3.894-1.023-7.974-1.302-12.054-.186-3.245.186-6.397-.93-9.55-.559-1.483-.094-3.338.092-5.099.466-3.895-1.023-7.696.093-11.59.28-.835-.837-2.04-.558-2.782 1.582-4.265 0-8.716 1.024-13.074.465-1.576 0-3.245-.093-4.914zm65.69 77.422c3.256-4.173 6.327-7.974 9.211-11.868 4.466-5.935 6.979-12.518 6.885-20.121-.093-5.934-1.023-11.961-.186-17.895.093-.649-.186-1.298-.279-1.854-.279-.835-.651-1.669-.837-2.597-.651-4.357-1.21-8.715-1.954-13.073-.28-1.762 1.395-3.709-.651-5.193-.93-3.801-1.861-7.603-2.885-11.404-2.14-7.881-4.931-15.484-9.118-22.438-.559-.928-.838-1.948-1.396-2.968-.558-1.02-.28-1.854.558-2.596 1.675-1.576 3.257-3.245 4.932-4.636 2.698-2.318 4-1.854 5.21 1.391.838 2.41 1.675 4.914 2.978 7.14 3.07 5.563 5.024 11.497 6.699 17.616 1.023 3.802 2.047 7.696 3.07 11.498.186-2.596 0-5.193-.186-7.696-.186-1.39 0-3.06-.744-3.987-1.303-1.854-.837-3.523-.651-5.378.093-.463-.186-1.39-.559-1.576-1.581-.742-1.86-2.04-2.233-3.523-.279-1.391-1.21-2.782-1.023-3.987.279-1.855-1.675-2.133-1.861-3.524 0-.185-.093-.463-.186-.649-1.117-2.596-2.14-5.285-3.443-7.881-1.396-2.874-2.605-5.934-4.466-8.53-3.164-4.358-5.955-8.902-10.514-12.147-3.908-2.781-7.816-5.47-12.19-7.418-4.093-1.854-8.28-2.318-12.56-2.04-2.605.186-4.932 1.206-7.072 3.06-4.652 4.08-7.722 9.273-10.235 14.65-2.698 5.842-4.838 11.961-6.792 18.08-1.582 4.915-2.791 10.015-3.536 15.114-1.023 7.047-1.395 14.094-2.14 21.233-1.21 11.405-.465 22.902-.093 34.307.093 4.543 1.024 9.179 1.21 13.815.186 5.007 1.954 9.643 2.605 14.465.651 4.358 2.233 8.53 3.536 12.795 2.233 7.603 5.583 14.743 10.42 21.141 1.397 1.854 2.792 3.708 4.56 5.007 5.304 3.987 11.166 6.861 17.958 6.49 5.769-.278 11.258-1.947 15.26-6.398 2.14-2.41 4-5.099 5.768-7.881 3.908-6.12 5.955-12.981 8.281-19.749.186-.557 0-1.206 0-1.948-3.163 1.391-6.048 2.689-8.932 3.895-1.117.556-2.047.649-2.42-.742zM90.299 83.82h.558v-3.524h-.372c0 1.205-.093 2.41-.186 3.524zM75.784 26.147c.186-.092.372-.278.558-.37-.186-.372-.279-.835-.558-1.113-.28-.371-.744-.65-1.117-.928-.093.093-.186.186-.372.279.559.649 1.024 1.39 1.489 2.132z"/></defs></svg>